<?xml version="1.0" encoding="utf-8"?>
<!-- Generator: Adobe Illustrator 16.0.0, SVG Export Plug-In . SVG Version: 6.00 Build 0)  -->
<!DOCTYPE svg PUBLIC "-//W3C//DTD SVG 1.1//EN" "http://www.w3.org/Graphics/SVG/1.1/DTD/svg11.dtd">
<svg version="1.1" id="Capa_1" xmlns="http://www.w3.org/2000/svg" xmlns:xlink="http://www.w3.org/1999/xlink" x="0px" y="0px"
	 width="60px" height="60px" viewBox="2487.165 1387.325 60 60" enable-background="new 2487.165 1387.325 60 60"
	 xml:space="preserve">
<circle fill="#75A822" cx="2517.165" cy="1417.325" r="30"/>
<g>
	<g>
		<path fill="#FFFFFF" d="M2531.998,1424.411c0.058,0.444-0.078,0.83-0.407,1.159l-3.859,3.833
			c-0.175,0.192-0.402,0.356-0.682,0.493c-0.281,0.135-0.557,0.222-0.828,0.261c-0.019,0-0.076,0.005-0.174,0.014
			c-0.097,0.011-0.223,0.016-0.377,0.016c-0.368,0-0.963-0.063-1.785-0.188s-1.828-0.436-3.018-0.929
			c-1.19-0.494-2.541-1.233-4.049-2.221c-1.509-0.987-3.115-2.342-4.818-4.063c-1.355-1.337-2.477-2.613-3.366-3.832
			c-0.891-1.22-1.607-2.346-2.148-3.381c-0.542-1.035-0.948-1.973-1.219-2.815c-0.271-0.841-0.455-1.567-0.551-2.177
			c-0.098-0.609-0.136-1.088-0.117-1.437c0.019-0.348,0.029-0.542,0.029-0.581c0.039-0.271,0.126-0.546,0.262-0.827
			c0.136-0.28,0.3-0.508,0.493-0.682l3.859-3.86c0.271-0.271,0.581-0.406,0.929-0.406c0.252,0,0.474,0.073,0.668,0.218
			c0.193,0.145,0.358,0.324,0.494,0.537l3.105,5.892c0.174,0.31,0.222,0.648,0.145,1.016c-0.078,0.368-0.242,0.677-0.494,0.929
			l-1.422,1.422c-0.038,0.039-0.072,0.102-0.102,0.188c-0.028,0.087-0.043,0.16-0.043,0.218c0.078,0.406,0.251,0.871,0.523,1.393
			c0.231,0.465,0.589,1.03,1.074,1.698c0.483,0.668,1.17,1.436,2.061,2.307c0.87,0.891,1.644,1.583,2.321,2.076
			c0.677,0.493,1.243,0.855,1.698,1.088c0.454,0.232,0.803,0.373,1.045,0.42l0.363,0.073c0.038,0,0.101-0.014,0.188-0.043
			c0.088-0.03,0.149-0.063,0.189-0.102l1.653-1.685c0.349-0.308,0.755-0.464,1.219-0.464c0.329,0,0.591,0.058,0.784,0.175h0.028
			l5.602,3.308C2531.679,1423.704,2531.92,1424.024,2531.998,1424.411z"/>
	</g>
</g>
</svg>
