<?xml version="1.0" encoding="utf-8"?>
<!-- Generator: Adobe Illustrator 16.0.0, SVG Export Plug-In . SVG Version: 6.00 Build 0)  -->
<!DOCTYPE svg PUBLIC "-//W3C//DTD SVG 1.1//EN" "http://www.w3.org/Graphics/SVG/1.1/DTD/svg11.dtd">
<svg version="1.1" id="Layer_1" xmlns="http://www.w3.org/2000/svg" xmlns:xlink="http://www.w3.org/1999/xlink" x="0px" y="0px"
	 width="67.319px" height="45.417px" viewBox="0 0 97.319 65.417" enable-background="new 0 0 97.319 65.417" xml:space="preserve">
<path fill="#333" d="M62.091,9.508c0,0-1.042,1.542-0.814,1.582c0.513,0.089,0.528-0.907,2.177-1.757
	c1.648-0.851,4.816-0.632,6.766-1.644c1.95-1.012,3.415-2.109,3.971-3.813c0.076-0.232-0.195-0.173-0.633,0.278
	s-1.213,1.015-5.074,1.332C64.566,5.805,62.091,9.508,62.091,9.508z"/>
<g>
	<path fill="#333" d="M64.537,32.396c7.228-1.521,14.235-3.135,13.806-3.363c0,0-26.028,3.351-48.198,8.552
		c-0.175,0.916-0.519,2.027-0.696,3.02C38.454,38.047,48.509,35.773,64.537,32.396z"/>
	<path fill="#333" d="M18.76,41.1c-8.147,2.107-14.239,4.289-15.969,5.697c-1.729,1.408-3.518,6.146-2.489,5.813
		c0.618-0.201,2.476-3.361,16.762-7.961C17.888,42.406,18.225,42.025,18.76,41.1z"/>
</g>
<g>
	<path fill="none" d="M46.096,18.955c-0.426,0.532-1.4,2.624-0.724,6.816c0.085,0.534,0.491,1.939,0.689,2.336
		s0.32,0.578,0.673,0.039s1.58-2.77,1.487-4.292c-0.093-1.521-0.506-4.164-1.152-5.022C46.625,18.242,46.235,18.778,46.096,18.955z"
		/>
	<path fill="none" d="M21.364,63.836c0,0,3.171-24.332,5.04-29.025c0,0-6.742,7.607-7.002,18.078
		C19.141,63.359,21.364,63.836,21.364,63.836z"/>
	<path fill="none" d="M39.485,22.372c-0.263,0.92-0.869,1.789-2.121,2.5c0,0-0.053-0.476-0.035-1.148
		c-0.081,1.216-0.02,2.273-0.02,2.273C38.414,24.884,39.183,23.442,39.485,22.372z"/>
	<path fill="none" d="M88.999,13.37l-2.297,2.925c-0.105,0.489-0.441,2.962-0.441,2.962c0.397-1.277,2.8-4.513,3.927-5.147
		c0,0-0.022-0.212-0.092-0.434C89.775,12.643,88.999,13.37,88.999,13.37z"/>
	<g>
		<path fill="none" d="M39.485,22.372c0.042-0.149,0.078-0.299,0.104-0.45c0.184-1.086-0.421-3.335-0.421-3.335
			c-0.164,0.269-0.586,0.84-1.317,2.491c-0.389,0.875-0.502,1.888-0.522,2.647c-0.081,1.216-0.02,2.273-0.02,2.273
			C38.414,24.884,39.183,23.442,39.485,22.372z"/>
		<path fill="none" d="M21.364,63.836c0,0,3.171-24.332,5.04-29.025c0,0-6.742,7.607-7.002,18.078
			C19.141,63.359,21.364,63.836,21.364,63.836z"/>
		<path fill="none" d="M88.999,13.37l-2.297,2.925c-0.105,0.489-0.441,2.962-0.441,2.962c0.397-1.277,2.8-4.513,3.927-5.147
			c0,0-0.022-0.212-0.092-0.434C89.775,12.643,88.999,13.37,88.999,13.37z"/>
		<g>
			<path fill="none" d="M21.364,63.836c0,0,3.171-24.332,5.04-29.025c0,0-6.742,7.607-7.002,18.078
				C19.141,63.359,21.364,63.836,21.364,63.836z"/>
			<path fill="none" d="M39.485,22.372c0.042-0.149,0.078-0.299,0.104-0.45c0.184-1.086-0.421-3.335-0.421-3.335
				c-0.164,0.269-0.586,0.84-1.317,2.491c-0.389,0.875-0.502,1.888-0.522,2.647c-0.081,1.216-0.02,2.273-0.02,2.273
				C38.414,24.884,39.183,23.442,39.485,22.372z"/>
			<path fill="none" d="M88.999,13.37l-2.297,2.925c-0.105,0.489-0.441,2.962-0.441,2.962c0.397-1.277,2.8-4.513,3.927-5.147
				c0,0-0.022-0.212-0.092-0.434C89.775,12.643,88.999,13.37,88.999,13.37z"/>
			<g>
				<path fill="none" d="M39.485,22.372c0.042-0.149,0.078-0.299,0.104-0.45c0.184-1.086-0.421-3.335-0.421-3.335
					c-0.164,0.269-0.586,0.84-1.317,2.491c-0.389,0.875-0.502,1.888-0.522,2.647c-0.081,1.216-0.02,2.273-0.02,2.273
					C38.414,24.884,39.183,23.442,39.485,22.372z"/>
				<path fill="none" d="M21.364,63.836c0,0,3.171-24.332,5.04-29.025c0,0-6.742,7.607-7.002,18.078
					C19.141,63.359,21.364,63.836,21.364,63.836z"/>
			</g>
		</g>
	</g>
	<path fill="#333" d="M39.59,21.921c-0.024,0.14-0.06,0.291-0.104,0.45C39.527,22.222,39.563,22.072,39.59,21.921z"/>
	<path fill="#333" d="M37.329,23.724c0.063-0.922,0.206-1.936,0.522-2.647C37.463,21.952,37.35,22.965,37.329,23.724z"/>
</g>
<path fill="#333" d="M82.372,21.241"/>
<g>
	<path fill="none" d="M39.59,21.921c0.184-1.086-0.421-3.335-0.421-3.335c-0.164,0.269-0.586,0.84-1.317,2.491
		c-0.389,0.875-0.502,1.888-0.522,2.647c-0.081,1.216-0.02,2.273-0.02,2.273c1.104-1.114,1.873-2.555,2.176-3.626
		C39.527,22.222,39.563,22.072,39.59,21.921z"/>
	<path fill="none" d="M21.364,63.836c0,0,3.171-24.332,5.04-29.025c0,0-6.742,7.607-7.002,18.078
		C19.141,63.359,21.364,63.836,21.364,63.836z"/>
	<path fill="none" d="M47.069,18.832c-0.444-0.589-0.834-0.053-0.974,0.123c-0.426,0.532-1.4,2.624-0.724,6.816
		c0.085,0.534,0.491,1.939,0.689,2.336s0.32,0.578,0.673,0.039s1.58-2.77,1.487-4.292C48.129,22.333,47.716,19.69,47.069,18.832z"/>
	<path fill="none" d="M88.213,18.478c-0.915,0.991-1.202,1.454-2.037,2.284l-0.642,4.642c0.81,0.3,1.328-0.657,2.297-2.174
		c0.968-1.517,2.046-5.935,2.046-5.935S89.219,17.385,88.213,18.478z"/>
	<path fill="none" d="M88.999,13.37l-2.297,2.925c-0.105,0.489-0.441,2.962-0.441,2.962c0.979-1.168,2.745-3.519,3.874-4.153
		c0,0,0.03-1.207-0.039-1.428C89.775,12.643,88.999,13.37,88.999,13.37z"/>
	<path fill="none" d="M79.298,13.916c-0.236,0.076-1.136,1.274-1.505,2.503c-0.368,1.229-1.003,3.279-0.286,6.664
		c0,0,0.033,0.152,0.147,0.575c0.031,0.118,0.154,0.469,0.154,0.469s0.426-0.393,0.71-0.734c0.917-1.102,1.622-2.279,1.622-2.279
		s0.627-2.377,0.461-3.513C80.285,15.43,79.298,13.916,79.298,13.916z"/>
</g>
<g>
	<path fill="none" d="M88.213,18.478c-0.915,0.991-1.202,1.454-2.037,2.284l-0.642,4.642c0.81,0.3,1.328-0.657,2.297-2.174
		c0.968-1.517,2.046-5.935,2.046-5.935S89.219,17.385,88.213,18.478z"/>
	<path fill="none" d="M79.298,13.916c-0.236,0.076-1.136,1.274-1.505,2.503c-0.368,1.229-1.003,3.279-0.286,6.664
		c0,0,0.033,0.152,0.147,0.575c0.031,0.118,0.154,0.469,0.154,0.469s0.426-0.393,0.71-0.734c0.917-1.102,1.622-2.279,1.622-2.279
		s0.627-2.377,0.461-3.513C80.285,15.43,79.298,13.916,79.298,13.916z"/>
	<path fill="none" d="M47.069,18.832c-0.444-0.589-0.834-0.053-0.974,0.123c-0.426,0.532-1.4,2.624-0.724,6.816
		c0.085,0.534,0.491,1.939,0.689,2.336s0.32,0.578,0.673,0.039s1.58-2.77,1.487-4.292C48.129,22.333,47.716,19.69,47.069,18.832z"/>
	<path fill="none" d="M39.59,21.921c0.184-1.086-0.421-3.335-0.421-3.335c-0.164,0.269-0.586,0.84-1.317,2.491
		c-0.389,0.875-0.502,1.888-0.522,2.647c-0.081,1.216-0.02,2.273-0.02,2.273c1.104-1.114,1.873-2.555,2.176-3.626
		C39.527,22.222,39.563,22.072,39.59,21.921z"/>
	<path fill="none" d="M88.999,13.37l-2.297,2.925c-0.105,0.489-0.441,2.962-0.441,2.962c0.979-1.168,2.745-3.519,3.874-4.153
		c0,0,0.03-1.207-0.039-1.428C89.775,12.643,88.999,13.37,88.999,13.37z"/>
	<g>
		<path fill="none" d="M47.069,18.832c-0.444-0.589-0.834-0.053-0.974,0.123c-0.426,0.532-1.4,2.624-0.724,6.816
			c0.085,0.534,0.491,1.939,0.689,2.336s0.32,0.578,0.673,0.039s1.58-2.77,1.487-4.292C48.129,22.333,47.716,19.69,47.069,18.832z"
			/>
		<path fill="none" d="M39.59,21.921c0.184-1.086-0.421-3.335-0.421-3.335c-0.164,0.269-0.586,0.84-1.317,2.491
			c-0.389,0.875-0.502,1.888-0.522,2.647c-0.081,1.216-0.02,2.273-0.02,2.273c1.104-1.114,1.873-2.555,2.176-3.626
			C39.527,22.222,39.563,22.072,39.59,21.921z"/>
		<path fill="none" d="M79.298,13.916c-0.236,0.076-1.136,1.274-1.505,2.503c-0.368,1.229-1.003,3.279-0.286,6.664
			c0,0,0.033,0.152,0.147,0.575c0.031,0.118,0.154,0.469,0.154,0.469s0.426-0.393,0.71-0.734c0.917-1.102,1.622-2.279,1.622-2.279
			s0.627-2.377,0.461-3.513C80.285,15.43,79.298,13.916,79.298,13.916z"/>
	</g>
	<path fill="#333" d="M95.924,9.465c0,0,0.904,1.418,0.578,2.367c-0.249,0.724-0.549,1.026-1.794,1.703
		c-1.928,1.051-2.403,1.021-2.403,1.021l-0.172,0.065c-0.069-0.807,0.739-3.372-1.065-3.834c0,0-0.874-0.262-2.019,0.645
		c-0.449,0.354-2.208,3.001-2.208,3.001l0.441-3.76c0,0-1.073-0.186-2.008,1.241c-0.459,0.7-1.159,9.369-1.159,9.369l-1.173,1.329
		l-0.904,1.025c0,0,0.993-8.709,1.463-10.773c0.153-0.671-0.47-1.229-0.639-1.108c-0.405,0.288-0.867,0.542-1.396,1.451
		c-0.068,0.116-0.147,1.35-0.214,1.91c0,0-0.793-3.213-1.642-3.077c-0.849,0.135-2.304,1.973-3.384,4.203
		c-0.172,0.354-1.65,4.325-2.838,6.75c-0.404,0.848-0.841,1.569-1.1,1.781c0,0,0.916-6.63,0.96-11.018c0,0-0.009-1.156-0.722-1.072
		c-0.586,0.07-1.916,0.781-2.188,1.243c-0.271,0.463-2.014,8.165-2.014,8.165l0.689-7.925c0,0,0.015-1.223-1.352-0.785
		c-1.24,0.396-1.64,0.865-1.64,0.865l-2.51,9.177c0,0,0.486-7.277,0.535-8.578c0.025-0.689-0.589-0.971-1.158-0.749
		c-0.668,0.262-1.456,0.736-1.585,1.195c-0.105,0.373-1.354,3.905-3.186,7.405c-0.758,1.44-1.666,2.968-2.58,4.165
		c0,0-1.175-2.768-1.057-6.014c0.12-3.245,1.421-4.433,1.421-4.433s0.971,4.662,1.472,4.093c0.368-0.417,1.68-2.487,1.496-2.958
		c-0.216-0.558-0.297-1.067-0.297-1.067s-0.143-0.682-0.127-1.343c0.016-0.662-0.813-0.689-1.984-0.311
		c-1.173,0.378-2.974,2.322-4.12,4.477c-0.55,1.034-1.3,2.404-1.932,3.55c-0.636,1.152-1.23,2.223-1.23,2.223
		s1.535-4.448,0.318-8.087c-1.217-3.638-2.711-5.56-2.711-5.56s-0.553-0.458,2.626-2.441c3.18-1.983,5.695-5.3,5.252-6.991
		C54.225,0.307,52.472,0,52.472,0s1.921,1.75-0.15,3.25c-2.206,1.597-8.888,5.041-7.65,6.799c1.365,1.938,1.796,2.477,2.365,3.329
		c0.568,0.852,1.126,2.396,1.126,2.396s-2.281,1.411-3.792,3.809c-1.511,2.4-1.626,3.748-3.499,6.958
		c-0.248,0.426-0.498,0.825-0.74,1.193c-0.827,1.225-1.682,2.285-1.744,2.366c-0.085,0.109-1.044-3.041-0.776-3.272
		c0.269-0.232,4.108-4.038,4.159-5.726s0.088-5.319-1.874-4.149c-1.963,1.171-3.392,2.949-3.669,3.331
		c-0.324,0.445-2.343,3.333-1.84,7.588L32.3,29.338l-2.107,1.48l5.131-17.299c0,0,1.341-4.165-0.979-2.124
		c-1.013,0.89-1.234,0.866-1.594,1.847s-1.744,5.319-1.744,5.319l-5.259,5.901c0,0-0.916-2.421,0.262-5.855
		c1.178-3.435,2.586-7.826,2.061-8.962c-0.196-0.425-1.434-0.312-2.061-0.066c-0.915,0.36-6.346,2.945-9.551,6.313
		c-3.206,3.369-5.823,7.654-6.052,10.271c-0.229,2.618,0.229,10.697,8.178,10.564c0,0,0.556-0.031,0.556-0.359
		c0-0.326-0.098-0.393-0.719-0.785s-7.229-5.363-5.004-14.293c0.042-0.17,1.045-4.382,11.415-9.617c0,0-1.505,5.659-2.126,7.654
		c-0.622,1.996-0.818,3.86-0.262,6.215c0.557,2.354,1.702,2.682,1.996,2.42c0.295-0.262,5.953-7.033,5.953-7.033l-3.729,12.332
		c0,0-4.375,3.728-7.088,9.038c-0.512,1.004-0.966,2.061-1.319,3.162c-0.071,0.223-0.131,0.438-0.197,0.654
		c-1.976,6.592-1.301,11.391,0.884,16.551c0.65,1.537,1.311,2.332,1.929,2.631c1.529,0.744,2.894-2.207,3.107-3.738
		c0.729-5.242,2.166-12.029,3.411-18.207c0.218-1.078,0.434-2.121,0.646-3.119c0.918-4.305,1.359-6.611,2.029-8.64l2.473-1.539
		l2.061-1.283c0,0,1.482,3.959,2.605,3.982c0.64,0.014,0.871-0.406,0.871-0.406c0.349-0.411,1.617-2.423,2.625-4.052
		c0.917-1.485,1.711-2.799,1.711-2.799s1.065,6.479,2.489,6.266c1.041-0.155,4.355-5.479,6.004-8.232
		c0.544-0.912,0.892-1.519,0.892-1.519s-0.535,6.212,2.332,8.437c0.492,0.382,1.319-0.238,2.203-1.966
		c0.482-0.944,1.547-3.154,2.53-5.217c1.238-2.596,2.417-5.095,2.417-5.095L60.12,29.514c0,0,0.796,0.041,1.61-0.385
		c0.821-0.43,1.098-0.841,1.247-1.75c0.149-0.909,0.192-1.209,0.192-1.209l3.001-9.919c0,0,0.193-0.229,0.089,0.509
		s-1.143,12.104-1.143,12.104s1.558-0.088,2.155-0.807c0.291-0.351,0.46-0.674,0.487-1.3c0.023-0.527,0.191-1.216,0.191-1.216
		l2.573-10.064c0,0,0.179-0.611,0.214,0.126c0.025,0.559-0.683,12.498-0.683,12.498s2.084-0.336,2.928-2.063
		c0.3-0.614,0.725-1.778,1.029-2.656c0.346-1.015,0.606-1.869,0.606-1.869s-0.091,5.759,2.004,6.091
		c0.937,0.149,3.855-5.614,3.855-5.614s-0.754,5.186,0.383,5.042c0.154-0.02,1.586-2.18,2.458-3.518
		c0.385-0.593,0.659-1.021,0.659-1.021s-0.218,1.254-1.06,7.726c-1.017,7.815-5.383,21.62-5.379,21.674
		c0.008,0.098,0.322,1.729,2.52-3.967c2.269-5.877,5.4-21.799,5.4-21.799s1.613,0.636,3.532-2.819
		c0.945-1.702,2.248-5.509,2.567-6.457c0,0,2.049-0.74,3.089-1.229C96.489,14.758,98.887,11.279,95.924,9.465z M21.364,63.836
		c0,0-2.223-0.477-1.962-10.947c0.26-10.471,7.002-18.078,7.002-18.078C24.535,39.504,21.364,63.836,21.364,63.836z M37.329,23.724
		c0.021-0.759,0.134-1.772,0.522-2.647c0.731-1.65,1.153-2.222,1.317-2.491c0,0,0.604,2.249,0.421,3.335
		c-0.026,0.151-0.063,0.301-0.104,0.45c-0.303,1.071-1.071,2.512-2.176,3.626C37.31,25.998,37.248,24.94,37.329,23.724z
		 M46.734,28.146c-0.353,0.539-0.475,0.359-0.673-0.039s-0.604-1.803-0.689-2.336c-0.677-4.193,0.298-6.284,0.724-6.816
		c0.14-0.176,0.529-0.712,0.974-0.123c0.646,0.858,1.06,3.501,1.152,5.022C48.314,25.376,47.087,27.607,46.734,28.146z
		 M80.141,21.113c0,0-0.705,1.177-1.622,2.279c-0.284,0.342-0.71,0.734-0.71,0.734s-0.123-0.351-0.154-0.469
		c-0.114-0.423-0.147-0.575-0.147-0.575c-0.717-3.384-0.082-5.435,0.286-6.664c0.369-1.229,1.269-2.427,1.505-2.503
		c0,0,0.987,1.515,1.304,3.685C80.768,18.735,80.141,21.113,80.141,21.113z M87.831,23.23c-0.969,1.517-1.487,2.474-2.297,2.174
		l0.642-4.642c0.835-0.831,1.122-1.293,2.037-2.284c1.006-1.092,1.664-1.182,1.664-1.182S88.799,21.713,87.831,23.23z
		 M90.135,15.104c-1.129,0.635-2.895,2.985-3.874,4.153c0,0,0.336-2.473,0.441-2.962l2.297-2.925c0,0,0.776-0.728,1.097,0.305
		C90.165,13.897,90.135,15.104,90.135,15.104z"/>
</g>
</svg>
